<?xml version="1.0" standalone="no"?>
<!DOCTYPE svg PUBLIC "-//W3C//DTD SVG 20010904//EN"
 "http://www.w3.org/TR/2001/REC-SVG-20010904/DTD/svg10.dtd">
<svg version="1.0" xmlns="http://www.w3.org/2000/svg"
 width="1280.000000pt" height="1229.000000pt" viewBox="0 0 1280.000000 1229.000000"
 preserveAspectRatio="xMidYMid meet">
<metadata>
Created by potrace 1.15, written by Peter Selinger 2001-2017
</metadata>
<g transform="translate(0.000000,1229.000000) scale(0.100000,-0.100000)"
fill="#000000" stroke="none">
<path d="M0 6145 l0 -6145 1538 2 1537 3 5 3025 5 3024 127 -364 c69 -201 244
-702 388 -1115 144 -412 351 -1006 460 -1320 299 -858 550 -1578 840 -2410
144 -412 269 -771 278 -798 l16 -47 1205 2 1206 3 46 135 c26 74 147 421 269
770 122 349 311 891 420 1205 109 314 284 815 389 1115 594 1706 725 2082 849
2438 l137 393 3 -3030 2 -3031 1540 0 1540 0 0 6145 0 6145 -1858 0 -1859 0
-126 -357 c-208 -592 -713 -2028 -1167 -3318 -122 -346 -293 -832 -380 -1080
-87 -247 -256 -727 -375 -1065 -550 -1564 -620 -1759 -626 -1752 -4 4 -130
351 -279 772 -414 1164 -424 1194 -510 1435 -44 124 -116 326 -160 450 -44
124 -116 326 -160 450 -110 310 -219 617 -343 965 -58 162 -139 392 -181 510
-42 118 -298 838 -569 1600 l-493 1385 -1857 3 -1857 2 0 -6145z"/>
</g>
</svg>
